<svg width="16" height="16" viewBox="0 0 16 16" fill="none" xmlns="http://www.w3.org/2000/svg">
<style>circle{fill:black;}path{fill:#ffca00;}@media(prefers-color-scheme:dark){circle{fill:white;}path{fill:black;}}</style>
<circle cx="8" cy="8" r="8"/>
<path d="M4.39948 12.3448V5.04452L3.16666 5.95101V4.64567L4.39948 3.73918H5.63231V12.3448H4.39948Z"/>
<path d="M6.92642 12.3448V11.112H8.15925V12.3448H6.92642Z"/>
<path d="M9.07235 5.5159C9.07235 5.22582 9.12069 4.96797 9.21739 4.74236C9.32214 4.51674 9.45912 4.32336 9.62833 4.1622C9.79754 4.00105 9.99092 3.88019 10.2085 3.79961C10.4341 3.71097 10.6678 3.66666 10.9095 3.66666C11.1512 3.66666 11.3809 3.71097 11.5984 3.79961C11.8241 3.88019 12.0215 4.00105 12.1907 4.1622C12.3599 4.32336 12.4928 4.51674 12.5895 4.74236C12.6943 4.96797 12.7467 5.22582 12.7467 5.5159V10.5681C12.7467 10.8581 12.6943 11.116 12.5895 11.3416C12.4928 11.5672 12.3599 11.7606 12.1907 11.9218C12.0215 12.0829 11.8241 12.2078 11.5984 12.2964C11.3809 12.377 11.1512 12.4173 10.9095 12.4173C10.6678 12.4173 10.4341 12.377 10.2085 12.2964C9.99092 12.2078 9.79754 12.0829 9.62833 11.9218C9.45912 11.7606 9.32214 11.5672 9.21739 11.3416C9.12069 11.116 9.07235 10.8581 9.07235 10.5681V5.5159ZM10.3052 10.5681C10.3052 10.7453 10.3616 10.8944 10.4744 11.0153C10.5872 11.1281 10.7322 11.1845 10.9095 11.1845C11.0868 11.1845 11.2318 11.1281 11.3446 11.0153C11.4574 10.8944 11.5138 10.7453 11.5138 10.5681V5.5159C11.5138 5.33863 11.4574 5.19359 11.3446 5.08078C11.2318 4.95992 11.0868 4.89948 10.9095 4.89948C10.7322 4.89948 10.5872 4.95992 10.4744 5.08078C10.3616 5.19359 10.3052 5.33863 10.3052 5.5159V10.5681Z"/>
</svg>
